<svg width="224" height="81" viewBox="0 0 224 81" fill="none" xmlns="http://www.w3.org/2000/svg">
<rect width="224" height="81" fill="#FFFDFD"/>
<path d="M42.9703 47.7046C42.511 49.233 41.6777 50.5916 40.4704 51.7804C39.2763 52.9692 37.8198 53.8901 36.1007 54.5433C34.3817 55.1965 32.5511 55.5231 30.609 55.5231C27.9453 55.5231 25.5241 54.8895 23.3459 53.6223C21.1676 52.3421 19.4617 50.5981 18.2282 48.3904C16.9947 46.1827 16.3779 43.7463 16.3779 41.0813C16.3779 39.0696 16.7388 37.1753 17.4605 35.3987C18.1954 33.609 19.1861 32.0741 20.4327 30.7938C21.6925 29.5136 23.2015 28.5011 24.9599 27.7565C26.7315 27.0119 28.6144 26.6396 30.609 26.6396C33.4697 26.6396 36.0154 27.3255 38.2462 28.6971C40.4902 30.0557 41.9599 31.8063 42.6553 33.9487L37.3408 36.4765C36.8159 35.2354 35.9564 34.2491 34.7622 33.5175C33.5682 32.786 32.1837 32.4202 30.609 32.4202C28.2208 32.4202 26.2722 33.2367 24.7631 34.8696C23.254 36.5026 22.4995 38.5731 22.4995 41.0813C22.4995 43.5765 23.254 45.647 24.7631 47.2931C26.2853 48.9391 28.2339 49.762 30.609 49.762C32.2887 49.762 33.7453 49.3505 34.9788 48.5276C36.2123 47.7046 37.0521 46.6007 37.4983 45.2159L42.9703 47.7046ZM55.1543 35.0264C56.5846 35.0264 57.9297 35.2877 59.1894 35.8102C60.4623 36.3327 61.5514 37.0513 62.4569 37.9657C63.3755 38.8671 64.0971 39.9579 64.622 41.2381C65.1601 42.5052 65.4291 43.8573 65.4291 45.2944C65.4291 47.2146 64.9763 48.9587 64.0709 50.5263C63.1786 52.0939 61.9451 53.3218 60.3704 54.2102C58.8089 55.0854 57.0702 55.5231 55.1543 55.5231C52.228 55.5231 49.7808 54.5499 47.8124 52.6034C45.8441 50.6569 44.8599 48.2206 44.8599 45.2944C44.8599 42.3681 45.8441 39.9252 47.8124 37.9657C49.7808 36.0062 52.228 35.0264 55.1543 35.0264ZM55.1543 40.4347C53.8027 40.4347 52.6742 40.8985 51.7687 41.8259C50.8765 42.7404 50.4303 43.8965 50.4303 45.2944C50.4303 46.653 50.8765 47.796 51.7687 48.7235C52.6742 49.651 53.8027 50.1148 55.1543 50.1148C56.4796 50.1148 57.5951 49.651 58.5005 48.7235C59.4059 47.796 59.8587 46.653 59.8587 45.2944C59.8587 43.8965 59.4059 42.7404 58.5005 41.8259C57.6082 40.8985 56.4927 40.4347 55.1543 40.4347ZM107.532 35.4183H113.22V55.1312H107.532V52.7993C107.047 53.6093 106.259 54.269 105.17 54.7784C104.094 55.2749 102.932 55.5231 101.686 55.5231C99.9931 55.5231 98.4382 55.0659 97.021 54.1514C95.6038 53.237 94.4884 51.9959 93.6748 50.4283C92.8612 48.8476 92.4545 47.1233 92.4545 45.2552C92.4545 42.4073 93.3468 39.9905 95.1314 38.0049C96.9291 36.0192 99.1138 35.0264 101.686 35.0264C102.92 35.0264 104.081 35.2811 105.17 35.7906C106.259 36.3001 107.047 36.9533 107.532 37.7501V35.4183ZM102.946 50.154C103.903 50.154 104.796 49.9253 105.622 49.4682C106.462 49.0109 107.099 48.4231 107.532 47.7046V42.8842C107.099 42.1395 106.462 41.5321 105.622 41.0618C104.796 40.5915 103.903 40.3563 102.946 40.3563C101.554 40.3563 100.387 40.8266 99.4421 41.7672C98.4973 42.6947 98.0249 43.8573 98.0249 45.2552C98.0249 46.653 98.4973 47.8221 99.4421 48.7627C100.387 49.6902 101.554 50.154 102.946 50.154Z" fill="#111111"/>
<path d="M131.428 27.0312H137.116V55.1309H131.428V52.799C130.942 53.609 130.155 54.2688 129.065 54.7782C127.99 55.2746 126.828 55.5229 125.582 55.5229C123.889 55.5229 122.334 55.0656 120.916 54.1511C119.5 53.2367 118.384 51.9957 117.571 50.428C116.757 48.8474 116.35 47.123 116.35 45.2549C116.35 42.407 117.242 39.9903 119.027 38.0046C120.825 36.019 123.009 35.0261 125.582 35.0261C126.815 35.0261 127.976 35.2809 129.065 35.7904C130.155 36.2999 130.942 36.953 131.428 37.7499V27.0312ZM126.841 50.1537C127.799 50.1537 128.692 49.9251 129.518 49.4679C130.358 49.0107 130.994 48.4228 131.428 47.7043V42.8839C130.994 42.1392 130.358 41.5318 129.518 41.0615C128.692 40.5912 127.799 40.356 126.841 40.356C125.451 40.356 124.283 40.8263 123.338 41.7669C122.393 42.6944 121.92 43.8571 121.92 45.2549C121.92 46.6527 122.393 47.8219 123.338 48.7624C124.283 49.69 125.451 50.1537 126.841 50.1537ZM151.544 35.0261C152.554 35.0261 153.361 35.1438 153.965 35.3789L153.63 40.6892C152.79 40.3887 151.944 40.2385 151.091 40.2385C150.383 40.2385 149.596 40.5128 148.729 41.0615C147.877 41.5971 147.227 42.3156 146.781 43.217V55.1309H141.092V35.4181H146.781V37.7499C147.24 36.94 147.929 36.2867 148.847 35.7904C149.779 35.2809 150.678 35.0261 151.544 35.0261ZM169.456 35.4181H175.145V55.1309H169.456V52.799C168.971 53.609 168.183 54.2688 167.094 54.7782C166.018 55.2746 164.857 55.5229 163.61 55.5229C161.918 55.5229 160.362 55.0656 158.945 54.1511C157.528 53.2367 156.413 51.9957 155.599 50.428C154.785 48.8474 154.379 47.123 154.379 45.2549C154.379 42.407 155.27 39.9903 157.055 38.0046C158.853 36.019 161.038 35.0261 163.61 35.0261C164.844 35.0261 166.005 35.2809 167.094 35.7904C168.183 36.2999 168.971 36.953 169.456 37.7499V35.4181ZM164.87 50.1537C165.828 50.1537 166.72 49.9251 167.547 49.4679C168.387 49.0107 169.023 48.4228 169.456 47.7043V42.8839C169.023 42.1392 168.387 41.5318 167.547 41.0615C166.72 40.5912 165.828 40.356 164.87 40.356C163.479 40.356 162.311 40.8263 161.366 41.7669C160.421 42.6944 159.949 43.8571 159.949 45.2549C159.949 46.6527 160.421 47.8219 161.366 48.7624C162.311 49.69 163.479 50.1537 164.87 50.1537ZM184.573 55.1309L177.428 35.4181H183.53L186.836 46.215L190.734 35.4181H195.222L199.198 46.215L202.465 35.4181H208.587L201.461 55.1309H196.993L192.997 44.3339L188.963 55.1309H184.573Z" fill="#BBB2F9"/>
<path d="M71.2683 53.3419V22.1024C71.2683 21.5944 71.4974 21.1093 71.9109 20.8117C77.9325 16.4784 83.6301 18.7529 86.2566 20.8281C86.6193 21.1148 86.8051 21.5601 86.8051 22.0212V53.3659C86.8051 53.7166 86.6943 54.0584 86.4886 54.343L80.5733 62.5219C79.9136 63.4339 78.556 63.4514 77.8729 62.5566L71.6107 54.3537C71.3886 54.0628 71.2683 53.7074 71.2683 53.3419Z" stroke="#111111" stroke-width="6"/>
</svg>
