<svg width="231" height="61" viewBox="0 0 231 61" fill="none" xmlns="http://www.w3.org/2000/svg">
<path d="M33.3047 39.1172C32.7578 40.9453 31.7656 42.5703 30.3281 43.9922C28.9062 45.4141 27.1719 46.5156 25.125 47.2969C23.0781 48.0781 20.8984 48.4688 18.5859 48.4688C15.4141 48.4688 12.5312 47.7109 9.9375 46.1953C7.34375 44.6641 5.3125 42.5781 3.84375 39.9375C2.375 37.2969 1.64062 34.3828 1.64062 31.1953C1.64062 28.7891 2.07031 26.5234 2.92969 24.3984C3.80469 22.2578 4.98438 20.4219 6.46875 18.8906C7.96875 17.3594 9.76562 16.1484 11.8594 15.2578C13.9688 14.3672 16.2109 13.9219 18.5859 13.9219C21.9922 13.9219 25.0234 14.7422 27.6797 16.3828C30.3516 18.0078 32.1016 20.1016 32.9297 22.6641L26.6016 25.6875C25.9766 24.2031 24.9531 23.0234 23.5312 22.1484C22.1094 21.2734 20.4609 20.8359 18.5859 20.8359C15.7422 20.8359 13.4219 21.8125 11.625 23.7656C9.82812 25.7188 8.92969 28.1953 8.92969 31.1953C8.92969 34.1797 9.82812 36.6562 11.625 38.625C13.4375 40.5938 15.7578 41.5781 18.5859 41.5781C20.5859 41.5781 22.3203 41.0859 23.7891 40.1016C25.2578 39.1172 26.2578 37.7969 26.7891 36.1406L33.3047 39.1172ZM47.8125 23.9531C49.5156 23.9531 51.1172 24.2656 52.6172 24.8906C54.1328 25.5156 55.4297 26.375 56.5078 27.4688C57.6016 28.5469 58.4609 29.8516 59.0859 31.3828C59.7266 32.8984 60.0469 34.5156 60.0469 36.2344C60.0469 38.5312 59.5078 40.6172 58.4297 42.4922C57.3672 44.3672 55.8984 45.8359 54.0234 46.8984C52.1641 47.9453 50.0938 48.4688 47.8125 48.4688C44.3281 48.4688 41.4141 47.3047 39.0703 44.9766C36.7266 42.6484 35.5547 39.7344 35.5547 36.2344C35.5547 32.7344 36.7266 29.8125 39.0703 27.4688C41.4141 25.125 44.3281 23.9531 47.8125 23.9531ZM47.8125 30.4219C46.2031 30.4219 44.8594 30.9766 43.7812 32.0859C42.7188 33.1797 42.1875 34.5625 42.1875 36.2344C42.1875 37.8594 42.7188 39.2266 43.7812 40.3359C44.8594 41.4453 46.2031 42 47.8125 42C49.3906 42 50.7188 41.4453 51.7969 40.3359C52.875 39.2266 53.4141 37.8594 53.4141 36.2344C53.4141 34.5625 52.875 33.1797 51.7969 32.0859C50.7344 30.9766 49.4062 30.4219 47.8125 30.4219ZM110.18 24.4219H116.953V48H110.18V45.2109C109.602 46.1797 108.664 46.9688 107.367 47.5781C106.086 48.1719 104.703 48.4688 103.219 48.4688C101.203 48.4688 99.3516 47.9219 97.6641 46.8281C95.9766 45.7344 94.6484 44.25 93.6797 42.375C92.7109 40.4844 92.2266 38.4219 92.2266 36.1875C92.2266 32.7812 93.2891 29.8906 95.4141 27.5156C97.5547 25.1406 100.156 23.9531 103.219 23.9531C104.688 23.9531 106.07 24.2578 107.367 24.8672C108.664 25.4766 109.602 26.2578 110.18 27.2109V24.4219ZM104.719 42.0469C105.859 42.0469 106.922 41.7734 107.906 41.2266C108.906 40.6797 109.664 39.9766 110.18 39.1172V33.3516C109.664 32.4609 108.906 31.7344 107.906 31.1719C106.922 30.6094 105.859 30.3281 104.719 30.3281C103.062 30.3281 101.672 30.8906 100.547 32.0156C99.4219 33.125 98.8594 34.5156 98.8594 36.1875C98.8594 37.8594 99.4219 39.2578 100.547 40.3828C101.672 41.4922 103.062 42.0469 104.719 42.0469Z" fill="#111111"/>
<path d="M138.633 14.3906H145.406V48H138.633V45.2109C138.055 46.1797 137.117 46.9688 135.82 47.5781C134.539 48.1719 133.156 48.4688 131.672 48.4688C129.656 48.4688 127.805 47.9219 126.117 46.8281C124.43 45.7344 123.102 44.25 122.133 42.375C121.164 40.4844 120.68 38.4219 120.68 36.1875C120.68 32.7812 121.742 29.8906 123.867 27.5156C126.008 25.1406 128.609 23.9531 131.672 23.9531C133.141 23.9531 134.523 24.2578 135.82 24.8672C137.117 25.4766 138.055 26.2578 138.633 27.2109V14.3906ZM133.172 42.0469C134.312 42.0469 135.375 41.7734 136.359 41.2266C137.359 40.6797 138.117 39.9766 138.633 39.1172V33.3516C138.117 32.4609 137.359 31.7344 136.359 31.1719C135.375 30.6094 134.312 30.3281 133.172 30.3281C131.516 30.3281 130.125 30.8906 129 32.0156C127.875 33.125 127.312 34.5156 127.312 36.1875C127.312 37.8594 127.875 39.2578 129 40.3828C130.125 41.4922 131.516 42.0469 133.172 42.0469ZM162.586 23.9531C163.789 23.9531 164.75 24.0938 165.469 24.375L165.07 30.7266C164.07 30.3672 163.062 30.1875 162.047 30.1875C161.203 30.1875 160.266 30.5156 159.234 31.1719C158.219 31.8125 157.445 32.6719 156.914 33.75V48H150.141V24.4219H156.914V27.2109C157.461 26.2422 158.281 25.4609 159.375 24.8672C160.484 24.2578 161.555 23.9531 162.586 23.9531ZM183.914 24.4219H190.688V48H183.914V45.2109C183.336 46.1797 182.398 46.9688 181.102 47.5781C179.82 48.1719 178.438 48.4688 176.953 48.4688C174.938 48.4688 173.086 47.9219 171.398 46.8281C169.711 45.7344 168.383 44.25 167.414 42.375C166.445 40.4844 165.961 38.4219 165.961 36.1875C165.961 32.7812 167.023 29.8906 169.148 27.5156C171.289 25.1406 173.891 23.9531 176.953 23.9531C178.422 23.9531 179.805 24.2578 181.102 24.8672C182.398 25.4766 183.336 26.2578 183.914 27.2109V24.4219ZM178.453 42.0469C179.594 42.0469 180.656 41.7734 181.641 41.2266C182.641 40.6797 183.398 39.9766 183.914 39.1172V33.3516C183.398 32.4609 182.641 31.7344 181.641 31.1719C180.656 30.6094 179.594 30.3281 178.453 30.3281C176.797 30.3281 175.406 30.8906 174.281 32.0156C173.156 33.125 172.594 34.5156 172.594 36.1875C172.594 37.8594 173.156 39.2578 174.281 40.3828C175.406 41.4922 176.797 42.0469 178.453 42.0469ZM201.914 48L193.406 24.4219H200.672L204.609 37.3359L209.25 24.4219H214.594L219.328 37.3359L223.219 24.4219H230.508L222.023 48H216.703L211.945 35.0859L207.141 48H201.914Z" fill="#BBB2F9"/>
<path d="M67 45.86V8.49502C67 7.88745 67.2728 7.30727 67.7652 6.95134C74.9352 1.76833 81.7195 4.48883 84.8469 6.97094C85.2788 7.31377 85.5 7.84646 85.5 8.39792V45.8887C85.5 46.3081 85.3681 46.7169 85.1231 47.0573L78.0796 56.8399C77.2941 57.9308 75.6776 57.9517 74.8642 56.8814L67.4077 47.0702C67.1432 46.7222 67 46.2971 67 45.86Z" stroke="black" stroke-width="6"/>
</svg>
