<svg width="40" height="36" viewBox="0 0 40 36" fill="none" xmlns="http://www.w3.org/2000/svg">
  <path
    d="M0 17.9884C0.0507317 17.3568 0.277111 16.6095 0.596718 16.203L11.5056 1.91968C12.569 0.651695 14.2254 0.538109 15.3408 1.47333C16.4562 2.40854 16.6591 4.32217 15.7669 5.49051L8.40916 15.1316H37.2726C38.7786 15.1316 40 16.4109 40 17.9884C40 19.566 38.7787 20.8453 37.2726 20.8453H8.40916L15.7669 30.4863C16.6597 31.6547 16.4226 33.5258 15.3408 34.5035C14.1657 35.5663 12.3978 35.2255 11.5056 34.0572L0.596718 19.7738C0.135067 19.182 0.00824738 18.7476 0 17.9884Z"
    fill="currentColor" />
</svg>