<svg width="35" height="37" viewBox="0 0 35 37" fill="none" xmlns="http://www.w3.org/2000/svg">
<path d="M14.9995 13H30.4844C32.1412 13 33.4844 14.3431 33.4844 16V33C33.4844 34.6569 32.1412 36 30.4844 36H14.9995C13.3427 36 11.9995 34.6569 11.9995 33V16C11.9995 14.3431 13.3427 13 14.9995 13Z" fill="white" stroke="black" stroke-width="2"/>
<path d="M1.52588e-05 4C1.52588e-05 1.79086 1.79088 0 4.00002 0H19.4849C21.694 0 23.4849 1.79086 23.4849 4V21C23.4849 23.2091 21.694 25 19.4849 25H4.00001C1.79087 25 1.52588e-05 23.2091 1.52588e-05 21V4Z" fill="#171717"/>
</svg>
