<?xml version="1.0" encoding="UTF-8"?>
<svg width="700pt" height="700pt" version="1.1" viewBox="0 0 700 700" xmlns="http://www.w3.org/2000/svg" xmlns:xlink="http://www.w3.org/1999/xlink">
 <defs>
  <symbol id="w" overflow="visible">
   <path d="m2.4844-0.14062c-0.125 0.0625-0.26172 0.10938-0.40625 0.14062-0.13672 0.03125-0.28125 0.046875-0.4375 0.046875-0.44922 0-0.80469-0.125-1.0625-0.375-0.26172-0.25-0.39062-0.58594-0.39062-1.0156 0-0.4375 0.12891-0.78125 0.39062-1.0312 0.25781-0.25 0.61328-0.375 1.0625-0.375 0.15625 0 0.30078 0.023438 0.4375 0.0625 0.14453 0.03125 0.28125 0.078125 0.40625 0.14062v0.5625c-0.13672-0.09375-0.26562-0.16016-0.39062-0.20312-0.125-0.039062-0.25781-0.0625-0.39062-0.0625-0.25 0-0.44922 0.085938-0.59375 0.25-0.13672 0.15625-0.20312 0.375-0.20312 0.65625s0.066406 0.5 0.20312 0.65625c0.14453 0.15625 0.34375 0.23438 0.59375 0.23438 0.13281 0 0.26562-0.019531 0.39062-0.0625 0.125-0.039063 0.25391-0.10156 0.39062-0.1875z"/>
  </symbol>
  <symbol id="c" overflow="visible">
   <path d="m1.8125-1.4688c-0.054688-0.03125-0.10938-0.050781-0.17188-0.0625-0.054687-0.007812-0.10547-0.015625-0.15625-0.015625-0.16797 0-0.29688 0.054687-0.39062 0.15625-0.09375 0.10547-0.14062 0.25781-0.14062 0.45312v0.9375h-0.64062v-2.0312h0.64062v0.34375c0.082031-0.13281 0.17578-0.23438 0.28125-0.29688 0.11328-0.0625 0.24219-0.09375 0.39062-0.09375 0.03125 0 0.054688 0.007813 0.078125 0.015625h0.10938z"/>
  </symbol>
  <symbol id="a" overflow="visible">
   <path d="m2.3281-1.0156v0.1875h-1.5156c0.019531 0.14844 0.078125 0.26172 0.17188 0.34375 0.09375 0.074219 0.22266 0.10938 0.39062 0.10938 0.13281 0 0.27344-0.019531 0.42188-0.0625 0.14453-0.039062 0.28906-0.10156 0.4375-0.1875v0.5c-0.15625 0.0625-0.3125 0.10547-0.46875 0.125-0.14844 0.03125-0.29688 0.046875-0.45312 0.046875-0.36719 0-0.65234-0.085938-0.85938-0.26562-0.19922-0.1875-0.29688-0.45312-0.29688-0.79688 0-0.32031 0.097656-0.57812 0.29688-0.76562 0.19531-0.19531 0.47266-0.29688 0.82812-0.29688 0.32031 0 0.57812 0.10156 0.76562 0.29688 0.1875 0.1875 0.28125 0.44531 0.28125 0.76562zm-0.65625-0.21875c0-0.125-0.039063-0.22266-0.10938-0.29688-0.074219-0.070312-0.16797-0.10938-0.28125-0.10938-0.125 0-0.23047 0.039063-0.3125 0.10938-0.074219 0.0625-0.12109 0.16406-0.14062 0.29688z"/>
  </symbol>
  <symbol id="f" overflow="visible">
   <path d="m1.2188-0.90625c-0.13672 0-0.24219 0.023438-0.3125 0.0625-0.0625 0.042969-0.09375 0.10938-0.09375 0.20312 0 0.085937 0.023438 0.15234 0.078125 0.20312 0.050781 0.042969 0.12891 0.0625 0.23438 0.0625 0.125 0 0.22656-0.039062 0.3125-0.125 0.082031-0.09375 0.125-0.20703 0.125-0.34375v-0.0625zm0.98438-0.25v1.1562h-0.64062v-0.29688c-0.09375 0.125-0.19922 0.21484-0.3125 0.26562-0.10547 0.050781-0.23438 0.078125-0.39062 0.078125-0.21094 0-0.38281-0.054688-0.51562-0.17188-0.125-0.125-0.1875-0.28516-0.1875-0.48438 0-0.23828 0.082031-0.41016 0.25-0.51562 0.16406-0.11328 0.42188-0.17188 0.76562-0.17188h0.39062v-0.046875c0-0.10156-0.042969-0.17578-0.125-0.21875-0.085938-0.050781-0.21094-0.078125-0.375-0.078125-0.14844 0-0.28125 0.015625-0.40625 0.046875-0.11719 0.023438-0.21875 0.058594-0.3125 0.10938v-0.48438c0.13281-0.03125 0.26953-0.054688 0.40625-0.078125 0.14453-0.019531 0.28516-0.03125 0.42188-0.03125 0.36328 0 0.625 0.074219 0.78125 0.21875 0.16406 0.14844 0.25 0.38281 0.25 0.70312z"/>
  </symbol>
  <symbol id="b" overflow="visible">
   <path d="m1.0156-2.5938v0.5625h0.67188v0.46875h-0.67188v0.85938c0 0.09375 0.015625 0.15625 0.046875 0.1875 0.039062 0.03125 0.11719 0.046875 0.23438 0.046875h0.32812v0.46875h-0.54688c-0.26172 0-0.44531-0.050781-0.54688-0.15625-0.10547-0.10156-0.15625-0.28516-0.15625-0.54688v-0.85938h-0.32812v-0.46875h0.32812v-0.5625z"/>
  </symbol>
  <symbol id="l" overflow="visible">
   <path d="m1.6875-1.7344v-1.0781h0.65625v2.8125h-0.65625v-0.29688c-0.085938 0.125-0.18359 0.21484-0.29688 0.26562-0.10547 0.050781-0.23047 0.078125-0.375 0.078125-0.25 0-0.45312-0.097656-0.60938-0.29688-0.15625-0.19531-0.23438-0.45312-0.23438-0.76562s0.078125-0.56641 0.23438-0.76562c0.15625-0.19531 0.35938-0.29688 0.60938-0.29688 0.14453 0 0.26953 0.03125 0.375 0.09375 0.11328 0.054687 0.21094 0.13672 0.29688 0.25zm-0.42188 1.3125c0.13281 0 0.23828-0.046875 0.3125-0.14062 0.070313-0.10156 0.10938-0.25391 0.10938-0.45312 0-0.1875-0.039062-0.33203-0.10938-0.4375-0.074219-0.10156-0.17969-0.15625-0.3125-0.15625-0.13672 0-0.24219 0.054687-0.3125 0.15625-0.074219 0.10547-0.10938 0.25-0.10938 0.4375 0 0.19922 0.035156 0.35156 0.10938 0.45312 0.070313 0.09375 0.17578 0.14062 0.3125 0.14062z"/>
  </symbol>
  <symbol id="k" overflow="visible">
   <path d="m1.3906-0.42188c0.13281 0 0.23828-0.046875 0.3125-0.14062 0.070313-0.10156 0.10938-0.25391 0.10938-0.45312 0-0.1875-0.039062-0.33203-0.10938-0.4375-0.074219-0.10156-0.17969-0.15625-0.3125-0.15625-0.13672 0-0.24609 0.054687-0.32812 0.15625-0.074219 0.10547-0.10938 0.25-0.10938 0.4375 0 0.19922 0.035156 0.35156 0.10938 0.45312 0.082031 0.09375 0.19141 0.14062 0.32812 0.14062zm-0.4375-1.3125c0.09375-0.11328 0.19141-0.19531 0.29688-0.25 0.11328-0.0625 0.23828-0.09375 0.375-0.09375 0.25 0 0.45312 0.10156 0.60938 0.29688 0.16406 0.19922 0.25 0.45312 0.25 0.76562s-0.085937 0.57031-0.25 0.76562c-0.15625 0.19922-0.35938 0.29688-0.60938 0.29688-0.13672 0-0.26172-0.027344-0.375-0.078125-0.10547-0.050781-0.20312-0.14062-0.29688-0.26562v0.29688h-0.64062v-2.8125h0.64062z"/>
  </symbol>
  <symbol id="j" overflow="visible">
   <path d="m0.046875-2.0312h0.64062l0.54688 1.375 0.46875-1.375h0.64062l-0.84375 2.2188c-0.09375 0.22656-0.19922 0.38281-0.3125 0.46875-0.10547 0.09375-0.25 0.14062-0.4375 0.14062h-0.375v-0.42188h0.20312c0.10156 0 0.17969-0.023438 0.23438-0.0625 0.050781-0.03125 0.085938-0.089844 0.10938-0.17188l0.03125-0.0625z"/>
  </symbol>
  <symbol id="i" overflow="visible">
   <path d="m0.34375-2.7031h0.875l0.625 1.4531 0.60938-1.4531h0.89062v2.7031h-0.65625v-1.9688l-0.625 1.4531h-0.4375l-0.625-1.4531v1.9688h-0.65625z"/>
  </symbol>
  <symbol id="v" overflow="visible">
   <path d="m0.82812-1.0312-0.73438-1h0.6875l0.40625 0.60938 0.42188-0.60938h0.6875l-0.73438 0.98438 0.76562 1.0469h-0.6875l-0.45312-0.64062-0.45312 0.64062h-0.67188z"/>
  </symbol>
  <symbol id="e" overflow="visible">
   <path d="m0.3125-2.0312h0.64062v2.0312h-0.64062zm0-0.78125h0.64062v0.53125h-0.64062z"/>
  </symbol>
  <symbol id="h" overflow="visible">
   <path d="m2.1875-1.6875c0.082031-0.125 0.17969-0.21875 0.29688-0.28125 0.11328-0.070312 0.23438-0.10938 0.35938-0.10938 0.23828 0 0.41406 0.074219 0.53125 0.21875 0.125 0.14844 0.1875 0.35547 0.1875 0.625v1.2344h-0.64062v-1.0625-0.03125-0.078125c0-0.14453-0.023437-0.25-0.0625-0.3125-0.042969-0.0625-0.10938-0.09375-0.20312-0.09375-0.125 0-0.22656 0.054687-0.29688 0.15625-0.0625 0.09375-0.09375 0.23438-0.09375 0.42188v1h-0.65625v-1.0625c0-0.21875-0.023437-0.35938-0.0625-0.42188-0.03125-0.0625-0.10156-0.09375-0.20312-0.09375-0.125 0-0.22656 0.054687-0.29688 0.15625-0.0625 0.09375-0.09375 0.23438-0.09375 0.42188v1h-0.64062v-2.0312h0.64062v0.29688c0.082031-0.11328 0.17578-0.19531 0.28125-0.25 0.10156-0.0625 0.21875-0.09375 0.34375-0.09375 0.13281 0 0.25391 0.039063 0.35938 0.10938 0.11328 0.0625 0.19531 0.15625 0.25 0.28125z"/>
  </symbol>
  <symbol id="u" overflow="visible">
   <path d="m0.3125-2.8125h0.64062v2.8125h-0.64062z"/>
  </symbol>
  <symbol id="g" overflow="visible">
   <path d="m0.29688-0.78125v-1.25h0.64062v0.20312 0.42188 0.32812c0 0.16797 0.003906 0.28906 0.015625 0.35938 0.007813 0.0625 0.023437 0.11719 0.046875 0.15625 0.019531 0.042969 0.050781 0.074219 0.09375 0.09375 0.039062 0.023438 0.09375 0.03125 0.15625 0.03125 0.13281 0 0.23828-0.050781 0.3125-0.15625 0.070312-0.10156 0.10938-0.25 0.10938-0.4375v-1h0.65625v2.0312h-0.65625v-0.29688c-0.09375 0.125-0.19922 0.21484-0.3125 0.26562-0.10547 0.050781-0.22656 0.078125-0.35938 0.078125-0.23047 0-0.40625-0.066406-0.53125-0.20312-0.11719-0.14453-0.17188-0.35156-0.17188-0.625z"/>
  </symbol>
  <symbol id="t" overflow="visible">
   <path d="m1.8906-1.9688v0.5c-0.13672-0.0625-0.27344-0.10156-0.40625-0.125-0.125-0.03125-0.24609-0.046875-0.35938-0.046875-0.125 0-0.21875 0.015625-0.28125 0.046875-0.054688 0.03125-0.078125 0.078125-0.078125 0.14062 0 0.054687 0.019531 0.09375 0.0625 0.125 0.050781 0.023437 0.13281 0.039063 0.25 0.046875l0.10938 0.015625c0.33203 0.054687 0.55469 0.125 0.67188 0.21875 0.11328 0.09375 0.17188 0.24609 0.17188 0.45312 0 0.21875-0.085938 0.38281-0.25 0.48438-0.15625 0.10547-0.39062 0.15625-0.70312 0.15625-0.13672 0-0.27734-0.011719-0.42188-0.03125-0.13672-0.019531-0.28125-0.050781-0.4375-0.09375v-0.48438c0.13281 0.0625 0.26953 0.10938 0.40625 0.14062 0.13281 0.03125 0.26953 0.046875 0.40625 0.046875 0.125 0 0.21875-0.015625 0.28125-0.046875 0.0625-0.039063 0.09375-0.09375 0.09375-0.15625s-0.023438-0.10156-0.0625-0.125c-0.042969-0.03125-0.13281-0.054687-0.26562-0.078125l-0.10938-0.015625c-0.29297-0.03125-0.49609-0.09375-0.60938-0.1875-0.11719-0.10156-0.17188-0.25391-0.17188-0.45312 0-0.21875 0.070312-0.37891 0.21875-0.48438 0.15625-0.10156 0.38281-0.15625 0.6875-0.15625 0.11328 0 0.23438 0.011719 0.35938 0.03125 0.13281 0.023437 0.28125 0.046875 0.4375 0.078125z"/>
  </symbol>
  <symbol id="s" overflow="visible">
   <path d="m1.6406-2.8125v0.42188h-0.35938c-0.09375 0-0.15625 0.015625-0.1875 0.046875s-0.046875 0.089844-0.046875 0.17188v0.14062h0.54688v0.46875h-0.54688v1.5625h-0.65625v-1.5625h-0.3125v-0.46875h0.3125v-0.14062c0-0.21875 0.0625-0.37891 0.1875-0.48438 0.125-0.10156 0.3125-0.15625 0.5625-0.15625z"/>
  </symbol>
  <symbol id="d" overflow="visible">
   <path d="m1.2812-1.6094c-0.14844 0-0.26172 0.054687-0.34375 0.15625-0.074219 0.10547-0.10938 0.25-0.10938 0.4375 0 0.19922 0.035156 0.35156 0.10938 0.45312 0.082031 0.10547 0.19531 0.15625 0.34375 0.15625 0.13281 0 0.23828-0.050781 0.3125-0.15625 0.070312-0.10156 0.10938-0.25391 0.10938-0.45312 0-0.1875-0.039063-0.33203-0.10938-0.4375-0.074219-0.10156-0.17969-0.15625-0.3125-0.15625zm0-0.46875c0.34375 0 0.61328 0.09375 0.8125 0.28125 0.19531 0.1875 0.29688 0.44922 0.29688 0.78125 0 0.33594-0.10156 0.59375-0.29688 0.78125-0.19922 0.1875-0.46875 0.28125-0.8125 0.28125-0.35547 0-0.63281-0.09375-0.82812-0.28125-0.19922-0.1875-0.29688-0.44531-0.29688-0.78125 0-0.33203 0.097656-0.59375 0.29688-0.78125 0.19531-0.1875 0.47266-0.28125 0.82812-0.28125z"/>
  </symbol>
  <symbol id="r" overflow="visible">
   <path d="m2.3438-1.2344v1.2344h-0.64062v-0.9375c0-0.17578-0.007813-0.29688-0.015625-0.35938-0.011719-0.070313-0.027344-0.125-0.046875-0.15625-0.023437-0.039063-0.058594-0.070313-0.10938-0.09375-0.042969-0.019531-0.089844-0.03125-0.14062-0.03125-0.13672 0-0.24609 0.054687-0.32812 0.15625-0.074219 0.10547-0.10938 0.24609-0.10938 0.42188v1h-0.64062v-2.8125h0.64062v1.0781c0.10156-0.11328 0.20703-0.19531 0.3125-0.25 0.11328-0.0625 0.23438-0.09375 0.35938-0.09375 0.23828 0 0.41406 0.074219 0.53125 0.21875 0.125 0.14844 0.1875 0.35547 0.1875 0.625z"/>
  </symbol>
  <symbol id="q" overflow="visible">
   <path d="m0.34375-2.7031h0.78125l0.96875 1.8594v-1.8594h0.67188v2.7031h-0.78125l-0.98438-1.8594v1.8594h-0.65625z"/>
  </symbol>
  <symbol id="p" overflow="visible">
   <path d="m2.3438-1.2344v1.2344h-0.64062v-0.9375c0-0.17578-0.007813-0.29688-0.015625-0.35938-0.011719-0.070313-0.027344-0.125-0.046875-0.15625-0.023437-0.039063-0.058594-0.070313-0.10938-0.09375-0.042969-0.019531-0.089844-0.03125-0.14062-0.03125-0.13672 0-0.24609 0.054687-0.32812 0.15625-0.074219 0.10547-0.10938 0.24609-0.10938 0.42188v1h-0.64062v-2.0312h0.64062v0.29688c0.10156-0.11328 0.20703-0.19531 0.3125-0.25 0.11328-0.0625 0.23438-0.09375 0.35938-0.09375 0.23828 0 0.41406 0.074219 0.53125 0.21875 0.125 0.14844 0.1875 0.35547 0.1875 0.625z"/>
  </symbol>
  <symbol id="o" overflow="visible">
   <path d="m0.34375-2.7031h1.1562c0.34375 0 0.60156 0.078125 0.78125 0.23438 0.1875 0.15625 0.28125 0.375 0.28125 0.65625s-0.09375 0.5-0.28125 0.65625c-0.17969 0.14844-0.4375 0.21875-0.78125 0.21875h-0.46875v0.9375h-0.6875zm0.6875 0.51562v0.75h0.39062c0.13281 0 0.23828-0.03125 0.3125-0.09375 0.070313-0.070312 0.10938-0.16406 0.10938-0.28125 0-0.125-0.039062-0.21875-0.10938-0.28125-0.074219-0.0625-0.17969-0.09375-0.3125-0.09375z"/>
  </symbol>
  <symbol id="n" overflow="visible">
   <path d="m0.3125-2.0312h0.64062v2c0 0.26953-0.070313 0.47266-0.20312 0.60938-0.125 0.14453-0.30859 0.21875-0.54688 0.21875h-0.32812v-0.42188h0.10938c0.125 0 0.20703-0.03125 0.25-0.09375 0.050781-0.054688 0.078125-0.15625 0.078125-0.3125zm0-0.78125h0.64062v0.53125h-0.64062z"/>
  </symbol>
  <symbol id="m" overflow="visible">
   <path d="m1.9531-1.9688v0.53125c-0.09375-0.0625-0.1875-0.10156-0.28125-0.125-0.085937-0.03125-0.17188-0.046875-0.26562-0.046875-0.17969 0-0.32031 0.054687-0.42188 0.15625-0.10547 0.10547-0.15625 0.25-0.15625 0.4375s0.050781 0.33984 0.15625 0.45312c0.10156 0.10547 0.24219 0.15625 0.42188 0.15625 0.10156 0 0.19531-0.015625 0.28125-0.046875 0.09375-0.03125 0.17969-0.078125 0.26562-0.14062v0.53125c-0.10547 0.042969-0.21094 0.066406-0.3125 0.078125-0.10547 0.019531-0.21094 0.03125-0.3125 0.03125-0.36719 0-0.65234-0.09375-0.85938-0.28125-0.21094-0.1875-0.3125-0.44531-0.3125-0.78125 0-0.33203 0.10156-0.59375 0.3125-0.78125 0.20703-0.1875 0.49219-0.28125 0.85938-0.28125 0.10156 0 0.20703 0.011719 0.3125 0.03125 0.10156 0.023437 0.20703 0.046875 0.3125 0.078125z"/>
  </symbol>
 </defs>
 <g>
  <path d="m349.63 0c28.109 0 50.305 22.191 50.305 50.305v179.76h179.76c27.371 0 50.305 22.191 50.305 49.562 0 28.109-22.934 50.305-50.305 50.305h-179.76v179.76c0 27.371-22.191 50.305-50.305 50.305-27.371 0-49.562-22.934-49.562-50.305v-179.76h-179.76c-28.109 0-50.305-22.191-50.305-50.305 0-27.371 22.191-49.562 50.305-49.562h179.76v-179.76c0-28.109 22.191-50.305 49.562-50.305z" fill-rule="evenodd"/>
  <use x="70" y="571.097656" xlink:href="#w"/>
  <use x="72.714844" y="571.097656" xlink:href="#c"/>
  <use x="74.539062" y="571.097656" xlink:href="#a"/>
  <use x="77.046875" y="571.097656" xlink:href="#f"/>
  <use x="79.542969" y="571.097656" xlink:href="#b"/>
  <use x="81.3125" y="571.097656" xlink:href="#a"/>
  <use x="83.820312" y="571.097656" xlink:href="#l"/>
  <use x="87.753906" y="571.097656" xlink:href="#k"/>
  <use x="90.402344" y="571.097656" xlink:href="#j"/>
  <use x="94.101562" y="571.097656" xlink:href="#i"/>
  <use x="97.78125" y="571.097656" xlink:href="#f"/>
  <use x="100.277344" y="571.097656" xlink:href="#v"/>
  <use x="102.664062" y="571.097656" xlink:href="#e"/>
  <use x="103.933594" y="571.097656" xlink:href="#h"/>
  <use x="107.785156" y="571.097656" xlink:href="#e"/>
  <use x="109.054688" y="571.097656" xlink:href="#u"/>
  <use x="110.320312" y="571.097656" xlink:href="#e"/>
  <use x="111.589844" y="571.097656" xlink:href="#g"/>
  <use x="114.222656" y="571.097656" xlink:href="#t"/>
  <use x="70" y="574.796875" xlink:href="#s"/>
  <use x="71.609375" y="574.796875" xlink:href="#c"/>
  <use x="73.433594" y="574.796875" xlink:href="#d"/>
  <use x="75.972656" y="574.796875" xlink:href="#h"/>
  <use x="81.117188" y="574.796875" xlink:href="#b"/>
  <use x="82.882812" y="574.796875" xlink:href="#r"/>
  <use x="85.519531" y="574.796875" xlink:href="#a"/>
  <use x="89.3125" y="574.796875" xlink:href="#q"/>
  <use x="92.410156" y="574.796875" xlink:href="#d"/>
  <use x="94.949219" y="574.796875" xlink:href="#g"/>
  <use x="97.582031" y="574.796875" xlink:href="#p"/>
  <use x="101.503906" y="574.796875" xlink:href="#o"/>
  <use x="104.214844" y="574.796875" xlink:href="#c"/>
  <use x="106.039063" y="574.796875" xlink:href="#d"/>
  <use x="108.582031" y="574.796875" xlink:href="#n"/>
  <use x="109.847656" y="574.796875" xlink:href="#a"/>
  <use x="112.359375" y="574.796875" xlink:href="#m"/>
  <use x="114.550781" y="574.796875" xlink:href="#b"/>
 </g>
</svg>
