<svg width="40" height="38" viewBox="0 0 40 38" fill="none" xmlns="http://www.w3.org/2000/svg">
<path d="M20.2344 1.84568C21.251 0.791922 22.6295 0.199951 24.0669 0.199951C25.5043 0.199951 26.8828 0.791922 27.8994 1.84568L38.4129 12.7475C39.4291 13.8016 40 15.231 40 16.7215C40 18.2119 39.4291 19.6414 38.4129 20.6955L23.5059 36.153C22.4895 37.2072 21.111 37.7996 19.6734 37.7999H12.1955C10.7579 37.7996 9.37938 37.2072 8.36304 36.153L1.58712 29.1269C0.570887 28.0728 0 26.6433 0 25.1529C0 23.6624 0.570887 22.2329 1.58712 21.1789L20.2317 1.84568H20.2344ZM25.9831 3.83268C25.4749 3.3058 24.7856 3.00981 24.0669 3.00981C23.3482 3.00981 22.6589 3.3058 22.1507 3.83268L9.59354 16.8536L23.9395 31.7293L36.4967 18.7085C37.0048 18.1814 37.2902 17.4667 37.2902 16.7215C37.2902 15.9762 37.0048 15.2615 36.4967 14.7345L25.9831 3.83268ZM22.0233 33.7163L7.67731 18.8406L3.50606 23.1659C2.99794 23.6929 2.7125 24.4076 2.7125 25.1529C2.7125 25.8981 2.99794 26.6128 3.50606 27.1399L10.282 34.166C10.7902 34.6931 11.4794 34.9893 12.1982 34.9895H19.6761C20.3949 34.9893 21.0842 34.6931 21.5923 34.166L22.026 33.7163H22.0233Z" fill="#111111"/>
</svg>
