<svg width="36" height="30" viewBox="0 0 36 30" fill="none" xmlns="http://www.w3.org/2000/svg">
<g clip-path="url(#clip0_24_977)">
<path d="M1.28607 19.1562C1.57615 19.1562 1.85435 19.2715 2.05947 19.4766C2.26459 19.6817 2.37982 19.9599 2.37982 20.25V25.7187C2.37982 26.2989 2.61029 26.8553 3.02053 27.2655C3.43076 27.6758 3.98716 27.9062 4.56732 27.9062H30.8173C31.3975 27.9062 31.9539 27.6758 32.3641 27.2655C32.7744 26.8553 33.0048 26.2989 33.0048 25.7187V20.25C33.0048 19.9599 33.1201 19.6817 33.3252 19.4766C33.5303 19.2715 33.8085 19.1562 34.0986 19.1562C34.3887 19.1562 34.6669 19.2715 34.872 19.4766C35.0771 19.6817 35.1923 19.9599 35.1923 20.25V25.7187C35.1923 26.8791 34.7314 27.9919 33.9109 28.8123C33.0904 29.6328 31.9776 30.0937 30.8173 30.0937H4.56732C3.407 30.0937 2.2942 29.6328 1.47373 28.8123C0.653258 27.9919 0.192322 26.8791 0.192322 25.7187V20.25C0.192322 19.9599 0.307556 19.6817 0.512674 19.4766C0.717792 19.2715 0.995991 19.1562 1.28607 19.1562Z" fill="#C1C1C1"/>
<path d="M16.9179 0.00687706C17.0195 -0.09498 17.1402 -0.175793 17.2731 -0.230932C17.406 -0.286071 17.5484 -0.314453 17.6923 -0.314453C17.8362 -0.314453 17.9786 -0.286071 18.1115 -0.230932C18.2444 -0.175793 18.3651 -0.09498 18.4667 0.00687706L25.0292 6.56938C25.2346 6.77475 25.3499 7.05331 25.3499 7.34375C25.3499 7.6342 25.2346 7.91275 25.0292 8.11813C24.8238 8.3235 24.5452 8.43888 24.2548 8.43888C23.9644 8.43888 23.6858 8.3235 23.4804 8.11813L18.786 3.42156V22.6563C18.786 22.9463 18.6708 23.2245 18.4657 23.4297C18.2606 23.6348 17.9824 23.75 17.6923 23.75C17.4022 23.75 17.124 23.6348 16.9189 23.4297C16.7138 23.2245 16.5985 22.9463 16.5985 22.6563V3.42156L11.9042 8.11813C11.8025 8.21982 11.6818 8.30049 11.5489 8.35552C11.416 8.41056 11.2736 8.43888 11.1298 8.43888C10.986 8.43888 10.8436 8.41056 10.7107 8.35552C10.5778 8.30049 10.4571 8.21982 10.3554 8.11813C10.2537 8.01643 10.1731 7.89571 10.118 7.76284C10.063 7.62997 10.0347 7.48757 10.0347 7.34375C10.0347 7.19994 10.063 7.05753 10.118 6.92466C10.1731 6.7918 10.2537 6.67107 10.3554 6.56938L16.9179 0.00687706Z" fill="#C1C1C1"/>
</g>
<defs>
<clipPath id="clip0_24_977">
<rect width="35" height="30" fill="white" transform="translate(0.192322)"/>
</clipPath>
</defs>
</svg>
