<svg width="34" height="34" viewBox="0 0 34 34" fill="none" xmlns="http://www.w3.org/2000/svg">
<path fill-rule="evenodd" clip-rule="evenodd" d="M14.7523 3.4977C14.8512 3.59639 14.9297 3.71364 14.9833 3.84272C15.0368 3.97181 15.0644 4.11019 15.0644 4.24995C15.0644 4.3897 15.0368 4.52808 14.9833 4.65717C14.9297 4.78625 14.8512 4.9035 14.7523 5.0022L2.75238 16.9999L14.7523 28.9977C14.9518 29.1972 15.0638 29.4678 15.0638 29.7499C15.0638 30.0321 14.9518 30.3027 14.7523 30.5022C14.5527 30.7017 14.2822 30.8138 14 30.8138C13.7179 30.8138 13.4473 30.7017 13.2478 30.5022L0.497757 17.7522C0.39881 17.6535 0.320307 17.5363 0.266743 17.4072C0.213179 17.2781 0.185608 17.1397 0.185608 16.9999C0.185608 16.8602 0.213179 16.7218 0.266743 16.5927C0.320307 16.4636 0.39881 16.3464 0.497757 16.2477L13.2478 3.4977C13.3465 3.39875 13.4637 3.32025 13.5928 3.26668C13.7219 3.21312 13.8603 3.18555 14 3.18555C14.1398 3.18555 14.2781 3.21312 14.4072 3.26668C14.5363 3.32025 14.6536 3.39875 14.7523 3.4977Z" fill="#C1C1C1"/>
<path fill-rule="evenodd" clip-rule="evenodd" d="M27.2523 3.4977C27.3512 3.59639 27.4297 3.71364 27.4833 3.84272C27.5368 3.97181 27.5644 4.11019 27.5644 4.24995C27.5644 4.3897 27.5368 4.52808 27.4833 4.65717C27.4297 4.78625 27.3512 4.9035 27.2523 5.0022L15.2524 16.9999L27.2523 28.9977C27.351 29.0965 27.4294 29.2138 27.4829 29.3428C27.5363 29.4719 27.5638 29.6102 27.5638 29.7499C27.5638 29.8897 27.5363 30.028 27.4829 30.1571C27.4294 30.2861 27.351 30.4034 27.2523 30.5022C27.1535 30.601 27.0362 30.6793 26.9071 30.7328C26.7781 30.7863 26.6397 30.8138 26.5 30.8138C26.3603 30.8138 26.222 30.7863 26.0929 30.7328C25.9638 30.6793 25.8465 30.601 25.7478 30.5022L12.9978 17.7522C12.8988 17.6535 12.8203 17.5363 12.7667 17.4072C12.7132 17.2781 12.6856 17.1397 12.6856 16.9999C12.6856 16.8602 12.7132 16.7218 12.7667 16.5927C12.8203 16.4636 12.8988 16.3464 12.9978 16.2477L25.7478 3.4977C25.8465 3.39875 25.9637 3.32025 26.0928 3.26668C26.2219 3.21312 26.3603 3.18555 26.5 3.18555C26.6398 3.18555 26.7781 3.21312 26.9072 3.26668C27.0363 3.32025 27.1536 3.39875 27.2523 3.4977Z" fill="#C1C1C1"/>
</svg>
