<?xml version="1.0" encoding="UTF-8"?>
<svg width="700pt" height="700pt" version="1.1" viewBox="0 0 700 700" xmlns="http://www.w3.org/2000/svg">
 <path d="m249.83 233.33 88.5 88.504 88.504-88.504zm213.42-3.4141-116.67 116.66c-4.5547 4.5586-11.941 4.5586-16.5 0l-116.66-116.66c-7.3516-7.3516-2.1445-19.918 8.25-19.918h233.33c10.395 0 15.598 12.566 8.25 19.918zm73.418 38.414c0-109.55-88.789-198.33-198.34-198.33s-198.33 88.785-198.33 198.33 88.785 198.34 198.33 198.34 198.34-88.789 198.34-198.34zm23.332 0c0 122.43-99.234 221.67-221.67 221.67-122.43 0-221.66-99.234-221.66-221.67 0-122.43 99.23-221.66 221.66-221.66 122.43 0 221.67 99.23 221.67 221.66z"/>
</svg>
