<svg width="34" height="34" viewBox="0 0 34 34" fill="none" xmlns="http://www.w3.org/2000/svg">
<path fill-rule="evenodd" clip-rule="evenodd" d="M19.2477 3.4977C19.1488 3.59639 19.0703 3.71364 19.0167 3.84272C18.9632 3.97181 18.9356 4.11019 18.9356 4.24995C18.9356 4.3897 18.9632 4.52808 19.0167 4.65717C19.0703 4.78625 19.1488 4.9035 19.2477 5.0022L31.2476 16.9999L19.2477 28.9977C19.0482 29.1972 18.9362 29.4678 18.9362 29.7499C18.9362 30.0321 19.0482 30.3027 19.2477 30.5022C19.4473 30.7017 19.7178 30.8138 20 30.8138C20.2821 30.8138 20.5527 30.7017 20.7522 30.5022L33.5022 17.7522C33.6012 17.6535 33.6797 17.5363 33.7333 17.4072C33.7868 17.2781 33.8144 17.1397 33.8144 16.9999C33.8144 16.8602 33.7868 16.7218 33.7333 16.5927C33.6797 16.4636 33.6012 16.3464 33.5022 16.2477L20.7522 3.4977C20.6535 3.39875 20.5363 3.32025 20.4072 3.26668C20.2781 3.21312 20.1397 3.18555 20 3.18555C19.8602 3.18555 19.7219 3.21312 19.5928 3.26668C19.4637 3.32025 19.3464 3.39875 19.2477 3.4977V3.4977Z" fill="#C1C1C1"/>
<path fill-rule="evenodd" clip-rule="evenodd" d="M6.74774 3.4977C6.6488 3.59639 6.57029 3.71364 6.51673 3.84272C6.46317 3.97181 6.43559 4.11019 6.43559 4.24995C6.43559 4.3897 6.46317 4.52808 6.51673 4.65717C6.57029 4.78625 6.6488 4.9035 6.74774 5.0022L18.7476 16.9999L6.74774 28.9977C6.64896 29.0965 6.57059 29.2138 6.51713 29.3428C6.46367 29.4719 6.43615 29.6102 6.43615 29.7499C6.43615 29.8897 6.46367 30.028 6.51713 30.1571C6.57059 30.2861 6.64896 30.4034 6.74774 30.5022C6.84653 30.601 6.96381 30.6793 7.09288 30.7328C7.22195 30.7863 7.36029 30.8138 7.49999 30.8138C7.6397 30.8138 7.77804 30.7863 7.90711 30.7328C8.03618 30.6793 8.15346 30.601 8.25224 30.5022L21.0022 17.7522C21.1012 17.6535 21.1797 17.5363 21.2333 17.4072C21.2868 17.2781 21.3144 17.1397 21.3144 16.9999C21.3144 16.8602 21.2868 16.7218 21.2333 16.5927C21.1797 16.4636 21.1012 16.3464 21.0022 16.2477L8.25224 3.4977C8.15355 3.39875 8.0363 3.32025 7.90721 3.26668C7.77813 3.21312 7.63975 3.18555 7.49999 3.18555C7.36024 3.18555 7.22186 3.21312 7.09277 3.26668C6.96369 3.32025 6.84644 3.39875 6.74774 3.4977V3.4977Z" fill="#C1C1C1"/>
</svg>
