<svg width="40" height="42" viewBox="0 0 40 42" fill="none" xmlns="http://www.w3.org/2000/svg">
<path d="M16.8543 7.56959C15.4966 5.56279 14.1064 3.8702 12.8525 2.69932C12.2303 2.08916 11.5211 1.5747 10.7479 1.17273C10.1046 0.864445 9.0879 0.565055 8.13341 1.11344C7.04553 1.74483 6.86768 2.98092 6.85879 3.76942C6.84989 4.67055 7.0485 5.73768 7.3716 6.8641C7.95259 8.90054 9.01973 11.3935 10.4396 13.9842L0.728706 23.6951C-0.0923925 24.5162 -0.0686785 25.6397 0.0824985 26.4163C0.245533 27.2552 0.636814 28.1741 1.14963 29.093C2.18119 30.9516 3.87674 33.1274 5.96951 35.2231C8.06524 37.3189 10.241 39.0114 12.0996 40.043C13.0185 40.5558 13.9374 40.9471 14.7763 41.1101C15.5529 41.2584 16.6734 41.285 17.4975 40.4639L34.1418 23.8196C34.4916 24.5815 34.4145 25.3373 34.29 26.6031C34.2011 27.4686 34.0884 28.5743 34.0736 30.089V30.4536H34.0825C34.1446 31.1943 34.4828 31.8846 35.0299 32.3877C35.577 32.8909 36.2931 33.1701 37.0364 33.1701C37.7797 33.1701 38.4958 32.8909 39.0429 32.3877C39.59 31.8846 39.9281 31.1943 39.9903 30.4536H39.9992V30.2847C40.0019 30.1689 39.998 30.0531 39.9873 29.9379C39.8243 26.2325 37.9123 21.8217 34.4738 19.5808C34.2894 19.1406 34.0806 18.7111 33.8483 18.2943C32.8138 16.4386 31.1212 14.2629 29.0255 12.1671C26.9298 10.0714 24.754 8.37587 22.8954 7.34431C21.9765 6.83445 21.0576 6.44317 20.2187 6.27718C19.442 6.12896 18.3216 6.10525 17.4975 6.92635L16.8543 7.56663V7.56959ZM10.8309 4.86323C11.9603 5.9185 13.3327 7.59627 14.717 9.70089L12.6302 11.7907C11.4978 9.63568 10.6738 7.6348 10.2203 6.04596C10.0215 5.39636 9.89139 4.72773 9.83193 4.05102C10.1017 4.23184 10.4366 4.49566 10.8309 4.86323ZM11.9988 16.6165C13.5995 19.142 15.2802 21.2615 16.7624 22.6428C16.9048 22.7756 17.0721 22.8789 17.2545 22.9471C17.4369 23.0152 17.631 23.0467 17.8256 23.0398C18.0202 23.0329 18.2115 22.9878 18.3887 22.907C18.5658 22.8261 18.7253 22.7112 18.8581 22.5687C18.9908 22.4262 19.0942 22.259 19.1623 22.0766C19.2304 21.8942 19.262 21.7001 19.2551 21.5055C19.2482 21.3109 19.203 21.1196 19.1222 20.9424C19.0414 20.7652 18.9265 20.6057 18.784 20.473C17.4412 19.2221 15.7693 17.1056 14.1479 14.4644L17.373 11.2393C17.5331 11.595 17.7139 11.9597 17.9155 12.3213C18.95 14.1799 20.6426 16.3556 22.7383 18.4514C24.8311 20.5471 27.0068 22.2397 28.8684 23.2712C29.23 23.4728 29.5917 23.6566 29.9503 23.8137L15.5411 38.2259C15.4734 38.2201 15.4061 38.2102 15.3395 38.1963C14.9334 38.1162 14.3257 37.888 13.5373 37.4493C11.984 36.5837 10.0216 35.0779 8.06524 33.1215C6.10883 31.1651 4.60299 29.2087 3.73742 27.6495C3.30168 26.8639 3.07047 26.2563 2.9934 25.8502C2.97949 25.7836 2.96959 25.7163 2.96375 25.6486L11.9988 16.6165ZM20.5062 10.8807C20.1994 10.3584 19.9594 9.79976 19.7918 9.21772C20.192 9.31554 20.7522 9.54378 21.4577 9.9321C23.011 10.7977 24.9733 12.3035 26.9298 14.2599C28.2637 15.5938 29.3901 16.9307 30.2438 18.1431C29.1829 18.0704 28.1171 18.1614 27.0839 18.4128C26.302 17.7618 25.5503 17.0753 24.8311 16.3556C22.8747 14.3992 21.3718 12.4369 20.5092 10.8807H20.5062Z" fill="#111111"/>
</svg>
