<svg width="31" height="32" viewBox="0 0 31 32" fill="none" xmlns="http://www.w3.org/2000/svg">
  <path
    d="M21.3125 12C21.3125 13.5913 20.7001 15.1174 19.6101 16.2426C18.52 17.3679 17.0416 18 15.5 18C13.9584 18 12.48 17.3679 11.3899 16.2426C10.2999 15.1174 9.6875 13.5913 9.6875 12C9.6875 10.4087 10.2999 8.88258 11.3899 7.75736C12.48 6.63214 13.9584 6 15.5 6C17.0416 6 18.52 6.63214 19.6101 7.75736C20.7001 8.88258 21.3125 10.4087 21.3125 12Z"
    fill="#C1C1C1" />
  <path fill-rule="evenodd" clip-rule="evenodd"
    d="M0 16C0 11.7565 1.63303 7.68687 4.53984 4.68629C7.44666 1.68571 11.3891 0 15.5 0C19.6109 0 23.5533 1.68571 26.4602 4.68629C29.367 7.68687 31 11.7565 31 16C31 20.2435 29.367 24.3131 26.4602 27.3137C23.5533 30.3143 19.6109 32 15.5 32C11.3891 32 7.44666 30.3143 4.53984 27.3137C1.63303 24.3131 0 20.2435 0 16ZM15.5 2C12.9459 2.00014 10.4438 2.74473 8.28166 4.14806C6.11948 5.55139 4.38511 7.55642 3.27818 9.93239C2.17125 12.3084 1.73675 14.9587 2.02468 17.5783C2.31262 20.198 3.31129 22.6804 4.90575 24.74C6.28137 22.452 9.30969 20 15.5 20C21.6903 20 24.7167 22.45 26.0943 24.74C27.6887 22.6804 28.6874 20.198 28.9753 17.5783C29.2633 14.9587 28.8287 12.3084 27.7218 9.93239C26.6149 7.55642 24.8805 5.55139 22.7183 4.14806C20.5562 2.74473 18.0541 2.00014 15.5 2Z"
    fill="#C1C1C1" />
</svg>