<svg width="40" height="36" viewBox="0 0 40 36" fill="none" xmlns="http://www.w3.org/2000/svg">
<path d="M3.34088e-07 17.9887C0.0507305 17.357 0.277111 16.6097 0.596719 16.2032L11.5056 1.91992C12.569 0.651939 14.2254 0.538353 15.3408 1.47357C16.4562 2.40879 16.6591 4.32241 15.7669 5.49075L8.40916 15.1318H37.2726C38.7786 15.1318 40 16.4111 40 17.9887C40 19.5662 38.7787 20.8455 37.2726 20.8455H8.40916L15.7669 30.4866C16.6598 31.6549 16.4226 33.526 15.3408 34.5038C14.1657 35.5665 12.3978 35.2258 11.5056 34.0574L0.596719 19.7741C0.135066 19.1823 0.00824703 18.7479 3.34088e-07 17.9887Z" fill="#FFFFFC"/>
</svg>
