<svg width="40" height="36" viewBox="0 0 40 36" fill="none" xmlns="http://www.w3.org/2000/svg">
<path d="M40 17.9887C39.9493 17.357 39.7229 16.6097 39.4033 16.2032L28.4944 1.91992C27.431 0.651939 25.7746 0.538353 24.6592 1.47357C23.5438 2.40879 23.3409 4.32241 24.2331 5.49075L31.5908 15.1318H2.72741C1.22137 15.1318 0 16.4111 0 17.9887C0 19.5662 1.22132 20.8455 2.72741 20.8455H31.5908L24.2331 30.4866C23.3402 31.6549 23.5774 33.526 24.6592 34.5038C25.8343 35.5665 27.6022 35.2258 28.4944 34.0574L39.4033 19.7741C39.8649 19.1823 39.9918 18.7479 40 17.9887Z" fill="#FFFFFC"/>
</svg>
