<svg width="193" height="51" viewBox="0 0 193 51" fill="none" xmlns="http://www.w3.org/2000/svg">
<g clip-path="url(#clip0_20_240)">
<path d="M27.826 32.7045C27.3691 34.233 26.5401 35.5916 25.3391 36.7804C24.1511 37.9692 22.7021 38.8901 20.9919 39.5433C19.2817 40.1964 17.4606 40.5231 15.5285 40.5231C12.8784 40.5231 10.4698 39.8894 8.30275 38.6223C6.13568 37.3421 4.43857 35.5981 3.21144 33.3904C1.9843 31.1827 1.37073 28.7463 1.37073 26.0813C1.37073 24.0696 1.72973 22.1753 2.44774 20.3987C3.1788 18.609 4.16443 17.074 5.40462 15.7938C6.65787 14.5136 8.15915 13.5011 9.90849 12.7565C11.6709 12.0119 13.5442 11.6396 15.5285 11.6396C18.3744 11.6396 20.907 12.3254 23.1263 13.6971C25.3587 15.0557 26.8208 16.8063 27.5127 18.9487L22.2256 21.4764C21.7034 20.2354 20.8483 19.2491 19.6603 18.5175C18.4723 17.786 17.095 17.4202 15.5285 17.4202C13.1526 17.4202 11.214 18.2367 9.71265 19.8696C8.21137 21.5026 7.46073 23.5731 7.46073 26.0813C7.46073 28.5765 8.21137 30.647 9.71265 32.293C11.227 33.9391 13.1656 34.762 15.5285 34.762C17.1995 34.762 18.6486 34.3505 19.8757 33.5276C21.1028 32.7045 21.9383 31.6007 22.3822 30.2159L27.826 32.7045ZM39.9472 20.0264C41.3702 20.0264 42.7083 20.2876 43.9615 20.8102C45.2278 21.3327 46.3114 22.0512 47.2121 22.9657C48.126 23.8671 48.8439 24.9579 49.3661 26.2381C49.9014 27.5052 50.169 28.8573 50.169 30.2943C50.169 32.2146 49.7186 33.9586 48.8179 35.5263C47.9302 37.0939 46.703 38.3218 45.1364 39.2101C43.583 40.0854 41.8532 40.5231 39.9472 40.5231C37.036 40.5231 34.6014 39.5498 32.6431 37.6034C30.685 35.6569 29.7059 33.2206 29.7059 30.2943C29.7059 27.3681 30.685 24.9252 32.6431 22.9657C34.6014 21.0061 37.036 20.0264 39.9472 20.0264ZM39.9472 25.4347C38.6026 25.4347 37.4799 25.8985 36.5791 26.8259C35.6915 27.7404 35.2476 28.8965 35.2476 30.2943C35.2476 31.6529 35.6915 32.796 36.5791 33.7235C37.4799 34.651 38.6026 35.1148 39.9472 35.1148C41.2657 35.1148 42.3754 34.651 43.2762 33.7235C44.1769 32.796 44.6274 31.6529 44.6274 30.2943C44.6274 28.8965 44.1769 27.7404 43.2762 26.8259C42.3885 25.8985 41.2788 25.4347 39.9472 25.4347ZM92.0551 20.4183H97.714V40.1311H92.0551V37.7993C91.5722 38.6093 90.7885 39.269 89.7049 39.7784C88.6346 40.2749 87.4791 40.5231 86.2392 40.5231C84.5549 40.5231 83.008 40.0658 81.5981 39.1514C80.1882 38.237 79.0785 36.9959 78.2692 35.4283C77.4597 33.8476 77.0551 32.1232 77.0551 30.2551C77.0551 27.4072 77.9428 24.9905 79.7183 23.0048C81.5067 21.0192 83.6801 20.0264 86.2392 20.0264C87.4666 20.0264 88.6212 20.2811 89.7049 20.7906C90.7885 21.3001 91.5722 21.9532 92.0551 22.7501V20.4183ZM87.4925 35.154C88.445 35.154 89.3331 34.9253 90.1552 34.4681C90.9907 34.0109 91.624 33.4231 92.0551 32.7045V27.8841C91.624 27.1394 90.9907 26.532 90.1552 26.0617C89.3331 25.5915 88.445 25.3563 87.4925 25.3563C86.1081 25.3563 84.9467 25.8266 84.0068 26.7671C83.0668 27.6947 82.5968 28.8573 82.5968 30.2551C82.5968 31.6529 83.0668 32.8221 84.0068 33.7627C84.9467 34.6902 86.1081 35.154 87.4925 35.154Z" fill="#111111"/>
<path d="M115.828 12.0315H121.486V40.1312H115.828V37.7993C115.345 38.6093 114.561 39.269 113.477 39.7784C112.407 40.2749 111.252 40.5231 110.012 40.5231C108.327 40.5231 106.781 40.0659 105.37 39.1514C103.961 38.237 102.851 36.9959 102.042 35.4283C101.232 33.8476 100.828 32.1232 100.828 30.2551C100.828 27.4072 101.715 24.9905 103.491 23.0049C105.279 21.0192 107.453 20.0264 110.012 20.0264C111.239 20.0264 112.394 20.2811 113.477 20.7906C114.561 21.3001 115.345 21.9532 115.828 22.7501V12.0315ZM111.265 35.154C112.217 35.154 113.106 34.9253 113.928 34.4681C114.763 34.0109 115.396 33.4231 115.828 32.7045V27.8841C115.396 27.1394 114.763 26.532 113.928 26.0618C113.106 25.5915 112.217 25.3563 111.265 25.3563C109.881 25.3563 108.719 25.8266 107.779 26.7671C106.839 27.6947 106.369 28.8573 106.369 30.2551C106.369 31.6529 106.839 32.8221 107.779 33.7627C108.719 34.6902 109.881 35.154 111.265 35.154ZM135.84 20.0264C136.845 20.0264 137.648 20.144 138.249 20.3791L137.916 25.6895C137.08 25.389 136.238 25.2387 135.39 25.2387C134.685 25.2387 133.902 25.513 133.04 26.0618C132.192 26.5973 131.545 27.3159 131.101 28.2172V40.1312H125.442V20.4183H131.101V22.7501C131.558 21.9402 132.243 21.287 133.157 20.7906C134.084 20.2811 134.979 20.0264 135.84 20.0264ZM153.66 20.4183H159.319V40.1312H153.66V37.7993C153.177 38.6093 152.393 39.269 151.31 39.7784C150.239 40.2749 149.085 40.5231 147.844 40.5231C146.16 40.5231 144.613 40.0659 143.203 39.1514C141.793 38.237 140.684 36.9959 139.874 35.4283C139.064 33.8476 138.66 32.1232 138.66 30.2551C138.66 27.4072 139.547 24.9905 141.323 23.0049C143.112 21.0192 145.286 20.0264 147.844 20.0264C149.071 20.0264 150.227 20.2811 151.31 20.7906C152.393 21.3001 153.177 21.9532 153.66 22.7501V20.4183ZM149.097 35.154C150.05 35.154 150.938 34.9253 151.761 34.4681C152.596 34.0109 153.229 33.4231 153.66 32.7045V27.8841C153.229 27.1394 152.596 26.532 151.761 26.0618C150.938 25.5915 150.05 25.3563 149.097 25.3563C147.714 25.3563 146.551 25.8266 145.611 26.7671C144.671 27.6947 144.202 28.8573 144.202 30.2551C144.202 31.6529 144.671 32.8221 145.611 33.7627C146.551 34.6902 147.714 35.154 149.097 35.154ZM168.699 40.1312L161.59 20.4183H167.661L170.95 31.2153L174.828 20.4183H179.293L183.248 31.2153L186.499 20.4183H192.589L185.5 40.1312H181.055L177.08 29.3341L173.066 40.1312H168.699Z" fill="#BBB2F9"/>
<path d="M55.9783 38.342V7.1024C55.9783 6.59443 56.2063 6.10936 56.6177 5.81178C62.6082 1.47844 68.2764 3.75296 70.8894 5.82817C71.2502 6.1148 71.435 6.56016 71.435 7.02122V38.366C71.435 38.7166 71.3248 39.0584 71.1201 39.343L65.2353 47.5219C64.579 48.434 63.2284 48.4514 62.5489 47.5566L56.319 39.3538C56.098 39.0628 55.9783 38.7074 55.9783 38.342Z" stroke="black" stroke-width="6"/>
</g>
<defs>
<clipPath id="clip0_20_240">
<rect width="193" height="51" fill="white"/>
</clipPath>
</defs>
</svg>
