<svg width="40" height="36" viewBox="0 0 40 36" fill="none" xmlns="http://www.w3.org/2000/svg">
<path d="M19.8408 3.04431C19.8898 3.01745 19.9448 3.00367 20.0007 3.00432C20.0558 3.0041 20.1099 3.01786 20.1582 3.04431C20.2154 3.07859 20.262 3.12786 20.2932 3.18679L37.4326 32.3491C37.5226 32.4991 37.5201 32.6591 37.4376 32.8066C37.4059 32.8671 37.3595 32.9186 37.3027 32.9565C37.2532 32.9869 37.1957 33.0017 37.1377 32.999H2.86375C2.80573 33.0019 2.74821 32.987 2.69878 32.9565C2.64192 32.9186 2.59551 32.8671 2.5638 32.8066C2.52261 32.7372 2.50129 32.6578 2.50217 32.5771C2.50305 32.4965 2.5261 32.4176 2.5688 32.3491L19.7058 3.18679C19.737 3.12794 19.7837 3.07869 19.8408 3.04431V3.04431ZM22.4503 1.91951C22.2029 1.4885 21.8461 1.1304 21.416 0.881377C20.9859 0.632353 20.4977 0.501221 20.0007 0.501221C19.5037 0.501221 19.0156 0.632353 18.5855 0.881377C18.1554 1.1304 17.7986 1.4885 17.5512 1.91951L0.411682 31.0819C-0.730616 33.0265 0.639141 35.4986 2.86125 35.4986H37.1377C39.3598 35.4986 40.7321 33.024 39.5873 31.0819L22.4503 1.91951Z" fill="#111111"/>
</svg>
