<svg width="38" height="32" viewBox="0 0 38 32" fill="none" xmlns="http://www.w3.org/2000/svg">
<path d="M11.7298 28.178C9.88538 30.9969 6.00265 32.1041 3.18372 30.2596C0.364787 28.4152 -0.742378 24.5325 1.10205 21.7136C2.94647 18.8946 6.8292 17.7875 9.64813 19.6319C9.89559 19.5936 10.1813 19.8028 10.467 20.012L25.8602 9.77709C25.5362 9.32045 25.4214 8.57809 25.3449 8.08318C24.8091 4.61882 27.1102 1.4759 30.5746 0.940179C34.0389 0.404454 37.1818 2.70552 37.7176 6.16988C38.2533 9.63423 35.9522 12.7771 32.4879 13.3129C30.7557 13.5807 28.9087 13.1062 27.4419 11.8128L12.0487 22.0477C12.7349 23.2085 12.9263 24.4457 12.6227 25.7595C12.3574 27.3208 11.7298 28.178 11.7298 28.178Z" fill="#111111"/>
</svg>
