<svg width="40" height="42" viewBox="0 0 40 42" fill="none" xmlns="http://www.w3.org/2000/svg">
<path d="M27.1546 0.600698L3.82232 24.9928V24.9925C3.68892 25.1335 3.58168 25.2987 3.50583 25.4804C3.4849 25.5284 3.46833 25.5761 3.44741 25.6284C3.42648 25.6806 3.39742 25.7372 3.38492 25.7982L0.0516635 39.7366C-0.0939402 40.3339 0.0731699 40.9668 0.490513 41.4016C0.908151 41.8363 1.51443 42.0083 2.08494 41.8537L15.4177 38.369C15.4761 38.369 15.5261 38.321 15.5801 38.3037L15.7217 38.2426H15.722C15.8958 38.1633 16.0539 38.0512 16.1887 37.9117L39.521 13.5196H39.5207C39.8302 13.1912 40.0026 12.7479 40 12.287C40 9.05237 38.7709 5.95023 36.583 3.66262C34.3952 1.37501 31.4278 0.0904545 28.3334 0.0904545C27.8913 0.0901506 27.467 0.273364 27.1543 0.600285L27.1546 0.600698ZM6.27236 28.1025C8.0173 28.3862 9.63002 29.244 10.8768 30.551C12.1237 31.8584 12.9392 33.5471 13.2054 35.3722L3.95952 37.7679L6.27236 28.1025ZM16.1343 33.0331C15.7306 31.7038 15.1104 30.4572 14.3009 29.3482C14.3751 29.3038 14.446 29.2546 14.5134 29.2002L35.2707 7.49548C36.0536 8.71626 36.5253 10.1254 36.6416 11.5899L16.1343 33.0331ZM32.917 5.03506L12.1553 26.7352C12.1033 26.8056 12.0562 26.8798 12.0138 26.9573C10.9529 26.1111 9.7605 25.4627 8.48898 25.0407L28.9963 3.60191C30.3989 3.72254 31.7482 4.21595 32.9171 5.0351L32.917 5.03506Z" fill="#111111"/>
</svg>
