<svg width="40" height="36" viewBox="0 0 40 36" fill="none" xmlns="http://www.w3.org/2000/svg">
<path d="M3.75401 4.25347C3.75401 3.25915 4.149 2.30556 4.85209 1.60247C5.55517 0.899385 6.50877 0.504395 7.50308 0.504395H32.4969C33.4912 0.504395 34.4448 0.899385 35.1479 1.60247C35.851 2.30556 36.246 3.25915 36.246 4.25347V13.1588C37.3201 13.435 38.2719 14.0605 38.9516 14.937C39.6312 15.8134 40 16.891 40 18.0001C40 19.1092 39.6312 20.1867 38.9516 21.0632C38.2719 21.9397 37.3201 22.5652 36.246 22.8414V31.7467C36.246 32.741 35.851 33.6946 35.1479 34.3977C34.4448 35.1008 33.4912 35.4958 32.4969 35.4958H7.50308C6.50877 35.4958 5.55517 35.1008 4.85209 34.3977C4.149 33.6946 3.75401 32.741 3.75401 31.7467V22.8414C2.67986 22.5652 1.72807 21.9397 1.04845 21.0632C0.368839 20.1867 0 19.1092 0 18.0001C0 16.891 0.368839 15.8134 1.04845 14.937C1.72807 14.0605 2.67986 13.435 3.75401 13.1588V4.25347ZM6.25339 13.1588C7.32753 13.435 8.27933 14.0605 8.95894 14.937C9.63856 15.8134 10.0074 16.891 10.0074 18.0001C10.0074 19.1092 9.63856 20.1867 8.95894 21.0632C8.27933 21.9397 7.32753 22.5652 6.25339 22.8414V31.7467C6.25339 32.0781 6.38505 32.396 6.61942 32.6304C6.85378 32.8647 7.17164 32.9964 7.50308 32.9964H32.4969C32.8284 32.9964 33.1462 32.8647 33.3806 32.6304C33.615 32.396 33.7466 32.0781 33.7466 31.7467V22.8414C32.6725 22.5652 31.7207 21.9397 31.0411 21.0632C30.3614 20.1867 29.9926 19.1092 29.9926 18.0001C29.9926 16.891 30.3614 15.8134 31.0411 14.937C31.7207 14.0605 32.6725 13.435 33.7466 13.1588V4.25347C33.7466 3.92203 33.615 3.60417 33.3806 3.3698C33.1462 3.13544 32.8284 3.00378 32.4969 3.00378H7.50308C7.17164 3.00378 6.85378 3.13544 6.61942 3.3698C6.38505 3.60417 6.25339 3.92203 6.25339 4.25347V13.1588ZM5.0037 15.5007C4.34082 15.5007 3.70509 15.764 3.23637 16.2327C2.76764 16.7015 2.50431 17.3372 2.50431 18.0001C2.50431 18.663 2.76764 19.2987 3.23637 19.7674C3.70509 20.2361 4.34082 20.4995 5.0037 20.4995C5.66658 20.4995 6.3023 20.2361 6.77103 19.7674C7.23976 19.2987 7.50308 18.663 7.50308 18.0001C7.50308 17.3372 7.23976 16.7015 6.77103 16.2327C6.3023 15.764 5.66658 15.5007 5.0037 15.5007ZM34.9963 15.5007C34.3334 15.5007 33.6977 15.764 33.229 16.2327C32.7603 16.7015 32.4969 17.3372 32.4969 18.0001C32.4969 18.663 32.7603 19.2987 33.229 19.7674C33.6977 20.2361 34.3334 20.4995 34.9963 20.4995C35.6592 20.4995 36.2949 20.2361 36.7636 19.7674C37.2324 19.2987 37.4957 18.663 37.4957 18.0001C37.4957 17.3372 37.2324 16.7015 36.7636 16.2327C36.2949 15.764 35.6592 15.5007 34.9963 15.5007Z" fill="#111111"/>
<path d="M28.583 8.00269H11.4173L11.2523 12.9865H12.2171C12.742 9.85723 13.7467 9.37235 17.6482 9.24988L18.5055 9.22238V25.076C18.5055 26.4181 18.2156 26.7381 15.8837 26.9455V27.9978H24.1166V26.9455C21.7722 26.7381 21.4823 26.4206 21.4823 25.076V9.22238L22.3521 9.24738C26.2511 9.37235 27.2584 9.85723 27.7832 12.9865H28.748L28.583 8.00269Z" fill="#111111"/>
</svg>
