<svg width="36" height="30" viewBox="0 0 36 30" fill="none" xmlns="http://www.w3.org/2000/svg">
<g clip-path="url(#clip0_24_974)">
<path d="M1.28607 19.1562C1.57615 19.1562 1.85435 19.2715 2.05947 19.4766C2.26459 19.6817 2.37982 19.9599 2.37982 20.25V25.7187C2.37982 26.2989 2.61029 26.8553 3.02053 27.2655C3.43076 27.6758 3.98716 27.9062 4.56732 27.9062H30.8173C31.3975 27.9062 31.9539 27.6758 32.3641 27.2655C32.7743 26.8553 33.0048 26.2989 33.0048 25.7187V20.25C33.0048 19.9599 33.1201 19.6817 33.3252 19.4766C33.5303 19.2715 33.8085 19.1562 34.0986 19.1562C34.3886 19.1562 34.6668 19.2715 34.872 19.4766C35.0771 19.6817 35.1923 19.9599 35.1923 20.25V25.7187C35.1923 26.8791 34.7314 27.9919 33.9109 28.8123C33.0904 29.6328 31.9776 30.0937 30.8173 30.0937H4.56732C3.407 30.0937 2.2942 29.6328 1.47373 28.8123C0.653258 27.9919 0.192322 26.8791 0.192322 25.7187V20.25C0.192322 19.9599 0.307556 19.6817 0.512674 19.4766C0.717792 19.2715 0.995991 19.1562 1.28607 19.1562Z" fill="#C1C1C1"/>
<path d="M16.9179 23.4306C17.0195 23.5325 17.1402 23.6133 17.2731 23.6684C17.406 23.7236 17.5484 23.752 17.6923 23.752C17.8362 23.752 17.9786 23.7236 18.1115 23.6684C18.2444 23.6133 18.3651 23.5325 18.4667 23.4306L25.0292 16.8681C25.2345 16.6627 25.3499 16.3842 25.3499 16.0937C25.3499 15.8033 25.2345 15.5247 25.0292 15.3194C24.8238 15.114 24.5452 14.9986 24.2548 14.9986C23.9643 14.9986 23.6858 15.114 23.4804 15.3194L18.786 20.0159V0.78125C18.786 0.491169 18.6708 0.21297 18.4657 0.00785187C18.2606 -0.197266 17.9824 -0.3125 17.6923 -0.3125C17.4022 -0.3125 17.124 -0.197266 16.9189 0.00785187C16.7138 0.21297 16.5985 0.491169 16.5985 0.78125V20.0159L11.9042 15.3194C11.6988 15.114 11.4202 14.9986 11.1298 14.9986C10.8394 14.9986 10.5608 15.114 10.3554 15.3194C10.15 15.5247 10.0347 15.8033 10.0347 16.0937C10.0347 16.3842 10.15 16.6627 10.3554 16.8681L16.9179 23.4306Z" fill="#C1C1C1"/>
</g>
<defs>
<clipPath id="clip0_24_974">
<rect width="35" height="30" fill="white" transform="translate(0.192322)"/>
</clipPath>
</defs>
</svg>
