<svg width="27" height="30" viewBox="0 0 27 30" fill="none" xmlns="http://www.w3.org/2000/svg">
<g clip-path="url(#clip0_24_971)">
<path d="M8.45194 11.1057C8.7197 11.1057 8.9765 11.2121 9.16584 11.4014C9.35518 11.5908 9.46155 11.8476 9.46155 12.1153V24.2307C9.46155 24.4985 9.35518 24.7553 9.16584 24.9446C8.9765 25.134 8.7197 25.2403 8.45194 25.2403C8.18417 25.2403 7.92737 25.134 7.73803 24.9446C7.54869 24.7553 7.44232 24.4985 7.44232 24.2307V12.1153C7.44232 11.8476 7.54869 11.5908 7.73803 11.4014C7.92737 11.2121 8.18417 11.1057 8.45194 11.1057ZM13.5 11.1057C13.7678 11.1057 14.0246 11.2121 14.2139 11.4014C14.4033 11.5908 14.5096 11.8476 14.5096 12.1153V24.2307C14.5096 24.4985 14.4033 24.7553 14.2139 24.9446C14.0246 25.134 13.7678 25.2403 13.5 25.2403C13.2322 25.2403 12.9754 25.134 12.7861 24.9446C12.5968 24.7553 12.4904 24.4985 12.4904 24.2307V12.1153C12.4904 11.8476 12.5968 11.5908 12.7861 11.4014C12.9754 11.2121 13.2322 11.1057 13.5 11.1057ZM19.5577 12.1153C19.5577 11.8476 19.4513 11.5908 19.262 11.4014C19.0727 11.2121 18.8159 11.1057 18.5481 11.1057C18.2803 11.1057 18.0235 11.2121 17.8342 11.4014C17.6448 11.5908 17.5385 11.8476 17.5385 12.1153V24.2307C17.5385 24.4985 17.6448 24.7553 17.8342 24.9446C18.0235 25.134 18.2803 25.2403 18.5481 25.2403C18.8159 25.2403 19.0727 25.134 19.262 24.9446C19.4513 24.7553 19.5577 24.4985 19.5577 24.2307V12.1153Z" fill="#C1C1C1"/>
<path fill-rule="evenodd" clip-rule="evenodd" d="M26.625 6.05769C26.625 6.59323 26.4123 7.10683 26.0336 7.4855C25.6549 7.86418 25.1413 8.07692 24.6058 8.07692H23.5962V26.25C23.5962 27.3211 23.1707 28.3483 22.4133 29.1056C21.656 29.863 20.6288 30.2885 19.5577 30.2885H7.44231C6.37124 30.2885 5.34404 29.863 4.58668 29.1056C3.82933 28.3483 3.40385 27.3211 3.40385 26.25V8.07692H2.39423C1.8587 8.07692 1.3451 7.86418 0.966419 7.4855C0.58774 7.10683 0.375 6.59323 0.375 6.05769V4.03846C0.375 3.50293 0.58774 2.98933 0.966419 2.61065C1.3451 2.23197 1.8587 2.01923 2.39423 2.01923H9.46154C9.46154 1.4837 9.67428 0.970098 10.053 0.591419C10.4316 0.21274 10.9452 0 11.4808 0L15.5192 0C16.0548 0 16.5684 0.21274 16.947 0.591419C17.3257 0.970098 17.5385 1.4837 17.5385 2.01923H24.6058C25.1413 2.01923 25.6549 2.23197 26.0336 2.61065C26.4123 2.98933 26.625 3.50293 26.625 4.03846V6.05769ZM5.66135 8.07692L5.42308 8.19606V26.25C5.42308 26.7855 5.63582 27.2991 6.0145 27.6778C6.39318 28.0565 6.90677 28.2692 7.44231 28.2692H19.5577C20.0932 28.2692 20.6068 28.0565 20.9855 27.6778C21.3642 27.2991 21.5769 26.7855 21.5769 26.25V8.19606L21.3387 8.07692H5.66135ZM2.39423 6.05769V4.03846H24.6058V6.05769H2.39423Z" fill="#C1C1C1"/>
</g>
<defs>
<clipPath id="clip0_24_971">
<rect width="25.3846" height="30" fill="white" transform="translate(0.807678)"/>
</clipPath>
</defs>
</svg>
